<svg class="podcast-list__play" width="10" height="13" viewbox="0 0 10 13" fill="none" xmlns="http://www.w3.org/2000/svg"> 
<mask id="path-1-inside-1_10801_2612" fill="white"> 
    <path fill-rule="evenodd" clip-rule="evenodd" 
    d="M1.3 11.331L8.29606 6.5L1.3 1.66897V11.331ZM0.666238 1.23131L0.669532 1.23361ZM1.41031 12.8347L9.64301 7.14971C10.119 6.82485 10.119 6.17514 9.64301 5.85029L1.41031 0.165315C0.828559 -0.240754 0 0.149072 0 0.815026V12.185C0 12.8509 0.828559 13.2408 1.41031 12.8347Z" /> 
</mask> 
<path fill-rule="nonzero" clip-rule="evenodd" 
    d="M1.3 11.331L8.29606 6.5L1.3 1.66897V11.331ZM0.666238 1.23131L0.669532 1.23361ZM1.41031 12.8347L9.64301 7.14971C10.119 6.82485 10.119 6.17514 9.64301 5.85029L1.41031 0.165315C0.828559 -0.240754 0 0.149072 0 0.815026V12.185C0 12.8509 0.828559 13.2408 1.41031 12.8347Z" 
    fill="transparent" /> 
<path 
    d="M0.38043 1.64157L0.383724 1.64387L0.95534 0.823347L0.952046 0.821052L0.38043 1.64157ZM8.29606 6.5L8.86429 7.32287L10.0559 6.5L8.86429 5.67713L8.29606 6.5ZM1.3 11.331H0.3V13.2368L1.86822 12.1539L1.3 11.331ZM1.3 1.66897L1.86822 0.846094L0.3 -0.23682L0.3 1.66897H1.3ZM1.41031 12.8347L0.842082 12.0118L0.837947 12.0147L1.41031 12.8347ZM9.64301 7.14971L9.07929 6.32373L9.07479 6.32684L9.64301 7.14971ZM9.64301 5.85029L9.07478 6.67317L9.07929 6.67625L9.64301 5.85029ZM1.41031 0.165315L0.83794 0.985324L0.84209 0.988189L1.41031 0.165315ZM7.72784 5.67713L0.731776 10.5082L1.86822 12.1539L8.86429 7.32287L7.72784 5.67713ZM0.731776 2.49184L7.72784 7.32287L8.86429 5.67713L1.86822 0.846094L0.731776 2.49184ZM2.3 11.331V1.66897H0.3V11.331H2.3ZM0.0946218 2.05183L0.0979165 2.05413L1.24115 0.413087L1.23785 0.410791L0.0946218 2.05183ZM1.97854 13.6576L10.2112 7.97258L9.07479 6.32684L0.84209 12.0118L1.97854 13.6576ZM10.2067 7.97568C11.2644 7.25381 11.2644 5.74619 10.2067 5.02432L9.07929 6.67625C9.04878 6.65543 9 6.59225 9 6.5C9 6.40775 9.04878 6.34457 9.07929 6.32374L10.2067 7.97568ZM10.2112 5.02741L1.97854 -0.657559L0.84209 0.988189L9.07479 6.67316L10.2112 5.02741ZM1.98268 -0.654683C1.37039 -1.08207 0.634896 -1.08305 0.0658676 -0.818838C-0.503175 -0.554624 -1 0.0270305 -1 0.815026H1C1 0.86366 0.982832 0.913165 0.957562 0.949235C0.935481 0.980753 0.914943 0.991998 0.90813 0.995161C0.89882 0.999484 0.868487 1.00663 0.837947 0.985313L1.98268 -0.654683ZM-1 0.815026V12.185H1V0.815026H-1ZM-1 12.185C-1 12.973 -0.503176 13.5546 0.0658678 13.8188C0.634896 14.083 1.37039 14.0821 1.98268 13.6547L0.837947 12.0147C0.868487 11.9934 0.89882 12.0005 0.90813 12.0048C0.914943 12.008 0.935481 12.0192 0.957562 12.0508C0.982832 12.0868 1 12.1363 1 12.185H-1Z" 
    fill="#A1A6B4" mask="url(#path-1-inside-1_10801_2612)" /> 
</svg>