<svg width="12" height="13" viewbox="0 0 12 13" fill="none" xmlns="http://www.w3.org/2000/svg"> 
  <path d="M8.44581 10.1257L8.75669 10.3028L9.02466 10.0657C9.28837 9.8324 9.62624 9.68876 10 9.68876C10.8073 9.68876 11.4467 10.3298 11.4467 11.0944C11.4467 11.8589 10.8073 12.5 10 12.5C9.19271 12.5 8.55333 11.8589 8.55333 11.0944C8.55333 10.9965 8.56707 10.8929 8.5925 10.7883L8.68139 10.4229L8.35491 10.2362L3.60824 7.5213L3.29315 7.34108L3.02421 7.58486C2.75016 7.83325 2.39465 7.98394 2 7.98394C1.15938 7.98394 0.5 7.3233 0.5 6.5261C0.5 5.7289 1.15938 5.06827 2 5.06827C2.39465 5.06827 2.75016 5.21896 3.02421 5.46735L3.29288 5.71088L3.60783 5.53115L8.30783 2.84892L8.62804 2.66618L8.54811 2.30626C8.51724 2.16726 8.5 2.0594 8.5 1.95783C8.5 1.16063 9.15938 0.5 10 0.5C10.8406 0.5 11.5 1.16063 11.5 1.95783C11.5 2.75503 10.8406 3.41566 10 3.41566C9.60535 3.41566 9.24984 3.26498 8.97579 3.01658L8.70712 2.77305L8.39217 2.95279L3.69217 5.63502L3.37196 5.81776L3.45189 6.17767C3.48276 6.31667 3.5 6.42453 3.5 6.5261C3.5 6.62767 3.48276 6.73554 3.45189 6.87454L3.37191 7.23471L3.69247 7.41736L8.44581 10.1257Z" fill="white" stroke="#A1A6B4"/> 
</svg>